<svg width="145" height="145" viewBox="0 0 145 145" fill="none" xmlns="http://www.w3.org/2000/svg">
<path d="M72.5 0C32.625 0 0 32.625 0 72.5C0 112.375 32.625 145 72.5 145C112.375 145 145 112.375 145 72.5C145 32.625 112.375 0 72.5 0ZM102.95 60.175L68.15 94.975C65.25 97.875 60.9 97.875 58 94.975L42.05 79.025C39.15 76.125 39.15 71.775 42.05 68.875C44.95 65.975 49.3 65.975 52.2 68.875L63.075 79.75L92.8 50.025C95.7 47.125 100.05 47.125 102.95 50.025C105.85 52.925 105.85 57.275 102.95 60.175Z" fill="#4C4C4C"/>
</svg>
