<svg width="145" height="145" viewBox="0 0 145 145" fill="none" xmlns="http://www.w3.org/2000/svg">
<path d="M123.766 21.2358C95.4511 -7.07862 49.5511 -7.07862 21.2362 21.2358C-7.07872 49.5503 -7.07872 95.4497 21.2362 123.764C49.5511 152.079 95.4511 152.079 123.766 123.764C152.081 95.4497 152.075 49.5503 123.766 21.2358ZM103.258 95.0553C104.345 96.1428 104.956 97.6178 104.956 99.1557C104.956 100.694 104.345 102.169 103.258 103.256C102.17 104.344 100.695 104.955 99.1572 104.955C97.6192 104.955 96.1442 104.344 95.0567 103.256L72.5011 80.7009L49.9454 103.256C49.4081 103.797 48.7692 104.226 48.0654 104.518C47.3617 104.811 46.6071 104.961 45.845 104.961C45.0828 104.961 44.3282 104.811 43.6245 104.518C42.9207 104.226 42.2818 103.797 41.7445 103.256C41.2054 102.718 40.7777 102.079 40.4859 101.375C40.1941 100.672 40.0439 99.9174 40.0439 99.1557C40.0439 98.394 40.1941 97.6398 40.4859 96.9362C40.7777 96.2326 41.2054 95.5934 41.7445 95.0553L64.3001 72.5L41.7445 49.9447C40.6569 48.8572 40.046 47.3822 40.046 45.8443C40.046 44.3063 40.6569 42.8313 41.7445 41.7438C42.832 40.6563 44.307 40.0454 45.845 40.0454C47.3829 40.0454 48.8579 40.6563 49.9454 41.7438L72.5011 64.2991L95.0567 41.7438C95.5952 41.2053 96.2345 40.7782 96.938 40.4868C97.6416 40.1954 98.3957 40.0454 99.1572 40.0454C99.9188 40.0454 100.673 40.1954 101.376 40.4868C102.08 40.7782 102.719 41.2053 103.258 41.7438C103.796 42.2823 104.223 42.9216 104.515 43.6251C104.806 44.3287 104.956 45.0827 104.956 45.8443C104.956 46.6058 104.806 47.3599 104.515 48.0634C104.223 48.767 103.796 49.4062 103.258 49.9447L80.7021 72.5L103.258 95.0553Z" fill="#4C4C4C"/>
</svg>
